# 3ds Max Wavefront OBJ Exporter v0.97b - (c)2007 guruware
# File Created: 10.09.2020 22:43:00

mtllib FLOWER.mtl

#
# object FLOWER
#

v  -477.8534 768.6219 67.2818
v  -479.4968 767.0014 67.4523
v  -479.2580 767.0014 69.7543
v  -477.6146 768.6219 69.5838
v  -476.0836 768.9187 67.1235
v  -476.1000 766.6631 66.6057
v  -478.4114 766.7047 66.4977
v  -478.3950 768.9603 67.0155
v  -477.8703 768.4825 69.3629
v  -476.2448 766.9805 70.0396
v  -475.2331 767.1404 67.9642
v  -476.8586 768.6423 67.2876
# 12 vertices

vn -0.6965 0.7139 0.0722
vn 0.0495 0.2231 -0.9735
vn 0.5618 0.7577 0.3322
# 3 vertex normals

vt 0.0000 1.0000 0.0000
vt 0.0000 0.0000 0.0000
vt 1.0000 0.0000 0.0000
vt 1.0000 1.0000 0.0000
# 4 texture coords

o FLOWER
g FLOWER
usemtl wire_028089177
f 1/1/1 2/2/1 3/3/1 4/4/1 
f 5/1/2 6/2/2 7/3/2 8/4/2 
f 9/1/3 10/2/3 11/3/3 12/4/3 
# 3 polygons

