# 3ds Max Wavefront OBJ Exporter v0.97b - (c)2007 guruware
# File Created: 24.08.2020 21:57:22

mtllib foliage.mtl

#
# object ROI_SAMPLE
#

v  -10547.8398 426.8293 21148.1621
v  -10558.1230 253.2681 21338.5996
v  -10446.9893 426.8293 21493.5859
v  -10324.7051 566.2744 21270.4492
v  -10223.8545 426.8293 21615.8730
v  -10101.5674 566.2744 21392.7363
v  -10000.7168 426.8293 21738.1602
v  -9878.4277 566.2744 21515.0215
v  -9810.2803 253.2681 21748.4414
v  -9655.2930 426.8293 21637.3086
v  -10425.5547 426.8293 20925.0234
v  -10202.4180 566.2744 21047.3125
v  -9979.2783 662.3685 21169.5977
v  -9756.1445 566.2744 21291.8848
v  -9533.0059 426.8293 21414.1719
v  -10303.2705 426.8293 20701.8867
v  -10080.1289 566.2744 20824.1738
v  -9856.9941 566.2744 20946.4609
v  -9633.8564 566.2744 21068.7461
v  -9410.7168 426.8293 21191.0332
v  -10148.2822 253.2681 20590.7559
v  -9957.8438 426.8293 20601.0352
v  -9734.7070 426.8293 20723.3223
v  -9511.5674 426.8293 20845.6094
v  -9400.4365 253.2681 21000.5977
v  -10157.4434 562.6205 21575.0137
v  -10022.5391 427.5352 21636.9297
v  -9878.5635 562.6205 21600.8281
v  -10005.0957 671.1526 21448.4805
v  -9726.2119 562.6205 21474.2949
v  -9852.7490 671.1526 21321.9473
v  -9573.8672 562.6205 21347.7617
v  -9700.3965 671.1526 21195.4141
v  -9511.9482 427.5352 21212.8594
v  -9548.0518 562.6205 21068.8809
v  -10283.9775 562.6205 21422.6641
v  -10131.6299 671.1526 21296.1309
v  -9979.2773 745.9442 21169.5977
v  -9826.9336 671.1526 21043.0664
v  -9674.5830 562.6205 20916.5332
v  -10410.5098 562.6205 21270.3164
v  -10258.1582 671.1526 21143.7832
v  -10105.8145 671.1526 21017.2500
v  -9953.4629 671.1526 20890.7168
v  -9801.1182 562.6205 20764.1836
v  -10446.6143 427.5352 21126.3398
v  -10384.6963 562.6205 20991.4355
v  -10232.3428 562.6205 20864.9023
v  -10080.0000 562.6205 20738.3691
v  -9936.0215 427.5352 20702.2656
v  -10257.5420 692.9678 21136.7949
v  -10270.0469 607.4979 21229.8750
v  -10221.5713 692.9678 21310.3125
v  -10152.7979 761.6373 21205.5684
v  -10116.8271 692.9678 21379.0859
v  -10048.0537 761.6373 21274.3418
v  -10012.0840 692.9678 21447.8594
v  -9943.3076 761.6373 21343.1152
v  -9919.0059 607.4979 21460.3672
v  -9838.5654 692.9678 21411.8887
v  -10188.7666 692.9678 21032.0527
v  -10084.0234 761.6373 21100.8262
v  -9979.2773 808.9588 21169.5977
v  -9874.5361 761.6373 21238.3711
v  -9769.7939 692.9678 21307.1445
v  -10119.9902 692.9678 20927.3086
v  -10015.2471 761.6373 20996.0820
v  -9910.5059 761.6373 21064.8555
v  -9805.7646 761.6373 21133.6289
v  -9701.0215 692.9678 21202.4023
v  -10039.5576 607.4979 20878.8301
v  -9946.4766 692.9678 20891.3379
v  -9841.7354 692.9678 20960.1133
v  -9736.9922 692.9678 21028.8848
v  -9688.5088 607.4979 21109.3223
# 75 vertices

vn -0.5824 0.7985 0.1521
vn -0.9019 0.3424 0.2633
vn -0.5727 0.7985 0.1852
vn -0.3176 0.9437 0.0927
vn -0.2310 0.8769 0.4214
vn -0.2009 0.9085 0.3665
vn 0.1521 0.7985 0.5824
vn 0.0927 0.9437 0.3176
vn 0.2633 0.3424 0.9019
vn 0.1852 0.7985 0.5727
vn -0.4215 0.8769 -0.2310
vn -0.3665 0.9085 -0.2009
vn 0.0000 1.0000 -0.0000
vn 0.3665 0.9085 0.2009
vn 0.4214 0.8769 0.2310
vn -0.1851 0.7985 -0.5728
vn -0.0927 0.9437 -0.3176
vn 0.2009 0.9085 -0.3665
vn 0.3176 0.9437 -0.0927
vn 0.5824 0.7985 -0.1521
vn -0.2633 0.3424 -0.9019
vn -0.1521 0.7986 -0.5824
vn 0.2310 0.8769 -0.4215
vn 0.5727 0.7986 -0.1852
vn 0.9019 0.3424 -0.2633
vn -0.0726 0.7985 0.5975
vn -0.0866 0.3423 0.9356
vn -0.0383 0.7985 0.6007
vn -0.0305 0.9437 0.3294
vn 0.3071 0.8769 0.3697
vn 0.2670 0.9085 0.3215
vn 0.5975 0.7985 0.0726
vn 0.3294 0.9437 0.0305
vn 0.9356 0.3424 0.0866
vn 0.6007 0.7985 0.0383
vn -0.3697 0.8769 0.3071
vn -0.3215 0.9085 0.2670
vn 0.3215 0.9085 -0.2671
vn 0.3697 0.8769 -0.3071
vn -0.6007 0.7986 -0.0383
vn -0.3294 0.9437 -0.0305
vn -0.2671 0.9085 -0.3215
vn 0.0305 0.9437 -0.3294
vn 0.0726 0.7985 -0.5975
vn -0.9356 0.3424 -0.0866
vn -0.5976 0.7985 -0.0726
vn -0.3071 0.8769 -0.3697
vn 0.0383 0.7986 -0.6007
vn 0.0866 0.3424 -0.9356
vn -0.5927 0.7985 0.1053
vn -0.9200 0.3423 0.1907
vn -0.5857 0.7985 0.1390
vn -0.3239 0.9437 0.0671
vn -0.2638 0.8769 0.4017
vn -0.2294 0.9085 0.3494
vn 0.1053 0.7985 0.5927
vn 0.0672 0.9437 0.3239
vn 0.1907 0.3423 0.9200
vn 0.1390 0.7986 0.5857
vn -0.4017 0.8769 -0.2638
vn -0.3494 0.9085 -0.2294
vn 0.3494 0.9085 0.2294
vn 0.4017 0.8769 0.2638
vn -0.1390 0.7985 -0.5857
vn -0.0671 0.9437 -0.3239
vn 0.2294 0.9085 -0.3494
vn 0.3239 0.9437 -0.0672
vn 0.5926 0.7986 -0.1053
vn -0.1907 0.3424 -0.9200
vn -0.1053 0.7986 -0.5926
vn 0.2638 0.8769 -0.4017
vn 0.5857 0.7986 -0.1390
vn 0.9200 0.3424 -0.1907
# 73 vertex normals

vt 0.0000 0.2500 0.0000
vt 0.0000 0.0000 0.0000
vt 0.2500 0.0000 0.0000
vt 0.2500 0.2500 0.0000
vt 0.5000 0.0000 0.0000
vt 0.5000 0.2500 0.0000
vt 0.7500 0.0000 0.0000
vt 0.7500 0.2500 0.0000
vt 1.0000 0.0000 0.0000
vt 1.0000 0.2500 0.0000
vt 0.0000 0.5000 0.0000
vt 0.2500 0.5000 0.0000
vt 0.5000 0.5000 0.0000
vt 0.7500 0.5000 0.0000
vt 1.0000 0.5000 0.0000
vt 0.0000 0.7500 0.0000
vt 0.2500 0.7500 0.0000
vt 0.5000 0.7500 0.0000
vt 0.7500 0.7500 0.0000
vt 1.0000 0.7500 0.0000
vt 0.0000 1.0000 0.0000
vt 0.2500 1.0000 0.0000
vt 0.5000 1.0000 0.0000
vt 0.7500 1.0000 0.0000
vt 1.0000 1.0000 0.0000
# 25 texture coords

o ROI_SAMPLE
g ROI_SAMPLE
usemtl wire_153228184
s 1
f 1/1/1 2/2/2 3/3/3 4/4/4 
f 4/4/4 3/3/3 5/5/5 6/6/6 
f 6/6/6 5/5/5 7/7/7 8/8/8 
f 8/8/8 7/7/7 9/9/9 10/10/10 
f 11/11/11 1/1/1 4/4/4 12/12/12 
f 12/12/12 4/4/4 6/6/6 13/13/13 
f 13/13/13 6/6/6 8/8/8 14/14/14 
f 14/14/14 8/8/8 10/10/10 15/15/15 
f 16/16/16 11/11/11 12/12/12 17/17/17 
f 17/17/17 12/12/12 13/13/13 18/18/18 
f 18/18/18 13/13/13 14/14/14 19/19/19 
f 19/19/19 14/14/14 15/15/15 20/20/20 
f 21/21/21 16/16/16 17/17/17 22/22/22 
f 22/22/22 17/17/17 18/18/18 23/23/23 
f 23/23/23 18/18/18 19/19/19 24/24/24 
f 24/24/24 19/19/19 20/20/20 25/25/25 
f 26/1/26 27/2/27 28/3/28 29/4/29 
f 29/4/29 28/3/28 30/5/30 31/6/31 
f 31/6/31 30/5/30 32/7/32 33/8/33 
f 33/8/33 32/7/32 34/9/34 35/10/35 
f 36/11/36 26/1/26 29/4/29 37/12/37 
f 37/12/37 29/4/29 31/6/31 38/13/13 
f 38/13/13 31/6/31 33/8/33 39/14/38 
f 39/14/38 33/8/33 35/10/35 40/15/39 
f 41/16/40 36/11/36 37/12/37 42/17/41 
f 42/17/41 37/12/37 38/13/13 43/18/42 
f 43/18/42 38/13/13 39/14/38 44/19/43 
f 44/19/43 39/14/38 40/15/39 45/20/44 
f 46/21/45 41/16/40 42/17/41 47/22/46 
f 47/22/46 42/17/41 43/18/42 48/23/47 
f 48/23/47 43/18/42 44/19/43 49/24/48 
f 49/24/48 44/19/43 45/20/44 50/25/49 
f 51/1/50 52/2/51 53/3/52 54/4/53 
f 54/4/53 53/3/52 55/5/54 56/6/55 
f 56/6/55 55/5/54 57/7/56 58/8/57 
f 58/8/57 57/7/56 59/9/58 60/10/59 
f 61/11/60 51/1/50 54/4/53 62/12/61 
f 62/12/61 54/4/53 56/6/55 63/13/13 
f 63/13/13 56/6/55 58/8/57 64/14/62 
f 64/14/62 58/8/57 60/10/59 65/15/63 
f 66/16/64 61/11/60 62/12/61 67/17/65 
f 67/17/65 62/12/61 63/13/13 68/18/66 
f 68/18/66 63/13/13 64/14/62 69/19/67 
f 69/19/67 64/14/62 65/15/63 70/20/68 
f 71/21/69 66/16/64 67/17/65 72/22/70 
f 72/22/70 67/17/65 68/18/66 73/23/71 
f 73/23/71 68/18/66 69/19/67 74/24/72 
f 74/24/72 69/19/67 70/20/68 75/25/73 
# 48 polygons

