# 3ds Max Wavefront OBJ Exporter v0.97b - (c)2007 guruware
# File Created: 10.09.2020 22:40:34

mtllib hidden_platform.mtl

#
# object HIDDEN_PLATFORM
#

v  -350.9316 773.6219 -187.3240
v  -350.9316 773.6219 -292.0396
v  -314.9133 773.6219 -292.0396
v  -314.9133 773.6219 -187.3240
v  -350.9316 778.7571 -187.3240
v  -314.9133 778.7571 -187.3240
v  -314.9133 778.7571 -292.0396
v  -350.9316 778.7571 -292.0396
v  -314.9133 773.6219 -323.0784
v  -350.9316 773.6219 -323.0784
v  -350.9316 778.7571 -323.0784
v  -314.9133 778.7571 -323.0784
v  166.4725 797.3159 -292.0396
v  166.4725 797.3159 -323.0784
v  166.4725 802.4510 -323.0784
v  166.4725 802.4510 -292.0396
v  124.9499 797.3159 -323.0784
v  124.9499 797.3159 -292.0396
v  124.9499 802.4510 -323.0784
v  124.9499 802.4510 -292.0396
v  124.9499 816.0829 -185.7442
v  124.9499 810.9478 -185.7442
v  166.4725 810.9478 -185.7442
v  166.4725 816.0829 -185.7442
# 24 vertices

vn -0.5774 -0.5774 0.5774
vn -0.7071 -0.7071 -0.0000
vn 0.3172 -0.9027 0.2907
vn 0.5774 -0.5774 0.5774
vn -0.5774 0.5774 0.5774
vn 0.5774 0.5774 0.5774
vn 0.2859 0.9059 0.3125
vn -0.7071 0.7071 -0.0000
vn 0.0192 -0.7128 -0.7011
vn -0.5774 -0.5774 -0.5774
vn -0.5774 0.5774 -0.5774
vn -0.0189 0.7007 -0.7133
vn 0.6930 -0.7194 0.0459
vn 0.5774 -0.5774 -0.5774
vn 0.5774 0.5774 -0.5774
vn 0.7217 0.6908 -0.0441
vn 0.0189 -0.7007 -0.7133
vn -0.2604 -0.9000 0.3496
vn -0.0192 0.7128 -0.7011
vn -0.3433 0.9044 0.2536
vn -0.5709 0.6163 0.5424
vn -0.5844 -0.5361 0.6092
vn 0.5844 -0.5361 0.6092
vn 0.5709 0.6163 0.5424
# 24 vertex normals

vt 1.0000 0.0000 0.0000
vt 1.0000 0.7714 0.0000
vt 0.0000 0.7714 0.0000
vt 0.0000 0.0000 0.0000
vt 1.0000 1.0000 0.0000
vt 0.0000 1.0000 0.0000
vt 0.7714 0.0000 0.0000
vt 0.7714 1.0000 0.0000
vt 0.2286 0.0000 0.0000
vt 0.2286 1.0000 0.0000
# 10 texture coords

o HIDDEN_PLATFORM
g HIDDEN_PLATFORM
usemtl wire_154215229
f 1/1/1 2/2/2 3/3/3 4/4/4 
f 5/4/5 6/1/6 7/2/7 8/3/8 
f 1/4/1 4/1/4 6/5/6 5/6/5 
f 4/4/4 3/7/3 7/8/7 6/6/6 
f 9/4/9 10/1/10 11/5/11 12/6/12 
f 10/4/10 2/9/2 8/10/8 11/6/11 
f 2/2/2 10/5/10 9/6/9 3/3/3 
f 7/2/7 12/5/12 11/6/11 8/3/8 
f 13/7/13 14/1/14 15/5/15 16/8/16 
f 2/9/2 1/1/1 5/5/5 8/10/8 
f 3/7/3 9/1/9 17/1/17 18/7/18 
f 9/1/9 12/5/12 19/5/19 17/1/17 
f 12/5/12 7/8/7 20/8/20 19/5/19 
f 7/8/7 3/7/3 18/7/18 20/8/20 
f 18/7/18 17/1/17 14/1/14 13/7/13 
f 17/1/17 19/5/19 15/5/15 14/1/14 
f 19/5/19 20/8/20 16/8/16 15/5/15 
f 21/8/21 22/7/22 23/7/23 24/8/24 
f 20/8/20 18/7/18 22/7/22 21/8/21 
f 18/7/18 13/7/13 23/7/23 22/7/22 
f 13/7/13 16/8/16 24/8/24 23/7/23 
f 16/8/16 20/8/20 21/8/21 24/8/24 
# 22 polygons

